<svg width="64" height="58" viewBox="0 0 64 58" fill="none" xmlns="http://www.w3.org/2000/svg">
<path fill-rule="evenodd" clip-rule="evenodd" d="M47.3947 0.747714L15.4362 1.11066L0.159927 27.5699L14.7982 57.1752L47.6461 57.3215L63.9362 29.1061L47.3947 0.747714ZM54.568 43.3323L62.4943 29.6036L49.8252 29.5471L41.8007 43.446L54.568 43.3323ZM53.9877 44.3375L47.0702 56.3189L34.4011 56.2625L41.2203 44.4512L53.9877 44.3375ZM40.0597 44.4615L33.2493 56.2574L15.9732 56.1804L22.6496 44.6166L40.0597 44.4615ZM21.7863 44.112L15.1435 55.6175L7.4195 39.9959L13.6594 29.188L21.7863 44.112ZM14.2454 28.1731L22.3722 43.0971L30.534 28.9605L22.3163 14.3463L22.2275 14.3478L14.2454 28.1731ZM13.099 28.1588L6.88681 38.9186L1.29355 27.6064L7.21405 17.3518L13.099 28.1588ZM7.80002 16.3369L13.685 27.1439L21.6446 13.3574L21.7591 13.3555L15.721 2.61733L7.80002 16.3369ZM23.23 43.6114L40.64 43.4563L48.6734 29.542L31.3974 29.4651L23.23 43.6114ZM48.5205 28.5413L31.4026 28.4651L23.4528 14.3271L40.0663 14.0477L48.5205 28.5413ZM39.4886 13.0572L22.8956 13.3364L16.5761 2.09778L32.9872 1.9114L39.4886 13.0572ZM34.1373 1.89834L40.6351 13.038L53.2818 12.8252L46.8241 1.75426L34.1373 1.89834ZM53.8596 13.8156L41.2128 14.0284L49.6812 28.5465L62.4854 28.6035L53.8596 13.8156Z" fill="#51445D"/>
</svg>
